<?xml version="1.0" encoding="UTF-8"?>
<!DOCTYPE svg PUBLIC "-//W3C//DTD SVG 1.1//EN" "http://www.w3.org/Graphics/SVG/1.1/DTD/svg11.dtd">
<!-- Creator: CorelDRAW -->
<svg xmlns="http://www.w3.org/2000/svg" xml:space="preserve" width="210mm" height="297mm" style="shape-rendering:geometricPrecision; text-rendering:geometricPrecision; image-rendering:optimizeQuality; fill-rule:evenodd; clip-rule:evenodd"
viewBox="0 0 210 297"
 xmlns:xlink="http://www.w3.org/1999/xlink">
 <defs>
  <style type="text/css">
   <![CDATA[
    .fil0 {fill:#E50914}
   ]]>
  </style>
 </defs>
 <g id="Camada_x0020_1">
  <metadata id="CorelCorpID_0Corel-Layer"/>
  <g id="_599684472">
   <path id="_599684736" class="fil0" d="M65.5541 148.902l4.145 11.6005 3.9773 -0.3895 0.0097 -21.6158 -3.632 0.0075 -0.0277 12.6882 -2.4575 -6.5196c-2.8221,-7.4769 -0.9622,-6.1623 -5.6689,-6.1715l0.001 23.0609 3.5919 -0.5096 0.0612 -12.1511z"/>
   <path id="_599684952" class="fil0" d="M147.992 161.506c-0.5651,-1.9446 -1.4349,-3.7815 -2.2085,-5.7951 -4.0168,-10.456 -2.0497,-4.5419 2.1444,-17.0825l-3.4166 -0.1429 -3.2454 5.9078 -2.1065 -5.8239 -3.8819 -0.0682c4.4621,12.4882 4.8339,9.6739 1.7349,16.2583 -0.5211,1.1071 -1.9453,4.0563 -1.9174,5.1991l3.4092 0.3295 2.3738 -5.2272 0.5984 -0.6934 1.8451 5.1848c0.747,1.7856 0.8321,1.374 4.6705,1.9537z"/>
   <polygon id="_599684976" class="fil0" points="77.1932,159.719 87.2322,158.935 87.2583,155.491 80.7917,155.755 80.9345,150.502 85.7283,150.46 85.8304,146.926 80.8184,146.873 80.8987,142.118 87.2327,142.002 87.2615,138.528 77.1877,138.569 "/>
   <polygon id="_599683800" class="fil0" points="106.785,142.074 113.166,142.09 113.281,138.507 103.153,138.505 103.153,158.51 106.785,158.51 106.787,150.295 111.724,150.302 111.724,146.715 106.785,146.715 "/>
   <polygon id="_599683776" class="fil0" points="89.6393,141.974 93.3814,142.063 93.3379,158.762 96.9798,158.594 96.9846,142.109 100.784,142.104 100.814,138.49 89.6163,138.697 "/>
   <polygon id="_599683248" class="fil0" points="115.562,158.751 125.483,159.146 125.452,155.602 119.403,155.292 119.177,153.795 119.215,138.492 115.936,138.497 115.562,138.49 "/>
   <polygon id="_599684592" class="fil0" points="128.483,159.231 131.975,159.67 132.034,138.547 128.494,138.563 "/>
  </g>
 </g>
</svg>
